PathFileType	4	(X/Y/Z)	/Users/mathieubourgeois/Desktop/Analyse/Traitement/Sujet_06/Data/Transformed_Sujet_06_velo_80.trc
DataRate	CameraRate	NumFrames	NumMarkers	Units	OrigDataRate	OrigDataStartFrame	OrigNumFrames
120.000000	120.000000	4	36	mm	120.000000	0	1892
Frame#	Time	RFHD			RANE			STRN			LANI			LKNE			T10			RHUM			RWRB			C7			LFWT			LTOE			RTOE			LWRA			LBWT			RBWT			RFWT			LKNI			RKNI			RKNE			LANE			RANI			LHEE			RHEE			LHUM			LRAD			RRAD			RWRA			LWRB			LFHD			LBHD			RBHD			RSHO			LSHO			CLAV			LCAR			RCAR			
		X1	Y1	Z1	X2	Y2	Z2	X3	Y3	Z3	X4	Y4	Z4	X5	Y5	Z5	X6	Y6	Z6	X7	Y7	Z7	X8	Y8	Z8	X9	Y9	Z9	X10	Y10	Z10	X11	Y11	Z11	X12	Y12	Z12	X13	Y13	Z13	X14	Y14	Z14	X15	Y15	Z15	X16	Y16	Z16	X17	Y17	Z17	X18	Y18	Z18	X19	Y19	Z19	X20	Y20	Z20	X21	Y21	Z21	X22	Y22	Z22	X23	Y23	Z23	X24	Y24	Z24	X25	Y25	Z25	X26	Y26	Z26	X27	Y27	Z27	X28	Y28	Z28	X29	Y29	Z29	X30	Y30	Z30	X31	Y31	Z31	X32	Y32	Z32	X33	Y33	Z33	X34	Y34	Z34	X35	Y35	Z35	X36	Y36	Z36	

1	0	262.1895751953125	1359.530639648438	104.1980438232421	-167.6080627441407	279.5833129882812	187.8241882324218	-47.33382034301759	1202.019775390625	32.05559921264641	25.34041786193848	558.1420288085938	-54.20154953002933	130.3808288574219	925.7306518554688	-123.3141632080079	-197.0880737304688	1350.076171875	46.65950393676747	181.9630584716797	1127.3251953125	215.5619506835937	387.1004638671875	1012.426879882812	173.9378814697266	42.09233474731445	1458.570068359375	34.72509002685538	-188.6808624267578	1116.11962890625	-60.4461212158204	166.9538269042969	471.0116271972656	-128.7577819824219	-16.10549545288088	164.7769165039062	197.7322235107422	408.5538940429688	1032.668823242188	-121.8453063964844	-345.0704040527344	1144.096435546875	-0.9543258547784021	-334.11572265625	1139.5771484375	107.1196136474608	-178.6526641845703	1104.6318359375	152.1733398437499	153.8515625	882.1797485351562	-28.04314804077152	-9.832492828369153	612.2696533203125	101.065071105957	-31.70983123779299	664.4591674804688	193.7103729248047	-5.245690822601302	560.3775634765625	-132.1156158447266	-132.9495086669922	275.8233337402344	113.6631317138672	-58.52051162719725	554.852783203125	-89.21867370605473	-219.5032196044922	280.489013671875	138.9877471923828	188.2170562744141	1127.2841796875	-195.4951477050782	225.8635711669922	1173.895751953125	-218.7618713378907	222.2498626708984	1157.216064453125	259.6714172363281	411.3817443847656	1020.276977539062	234.5782623291016	432.9980773925781	1036.88134765625	-178.9095916748047	263.2651672363281	1350.5771484375	-39.32118606567388	202.3705749511719	1488.277099609375	-48.00214004516609	206.7453308105469	1515.610107421875	78.03713989257805	57.90682601928709	1418.704345703125	172.6299591064452	43.79028320312501	1414.40625	-115.5888900756837	42.43553161621093	1322.805297851562	30.08909606933586	485.43359375	1044.897216796875	-98.07557678222658	487.5809936523438	1045.786376953125	177.0163879394531	
2	0.008333333333333333	261.7217102050781	1359.098388671875	104.4567184448242	-175.2061309814453	287.8290100097656	187.6086425781249	-47.95201873779298	1201.709228515625	31.97657203674308	33.96116256713868	549.7418212890625	-54.92193222045901	129.4994812011719	920.0277709960938	-121.8479537963868	-197.5104522705078	1349.897216796875	46.42806243896474	181.6417999267578	1127.07177734375	215.3443450927734	386.9502868652344	1012.401489257812	173.8152160644531	41.66409301757812	1458.265502929688	34.88137054443351	-189.2045288085938	1115.816528320312	-60.9583625793458	176.7627716064453	465.9219055175781	-128.7924346923828	-26.21752929687502	170.18408203125	197.9646148681641	408.3435974121094	1032.680053710938	-121.8707275390625	-345.6031799316406	1143.652465820312	-1.517042875290029	-334.8489685058594	1139.38330078125	106.5510025024413	-179.3032836914063	1104.596923828125	151.7767639160155	152.9569854736328	875.9957275390625	-27.05957031250004	-6.89992427825929	615.4591064453125	101.5021667480468	-28.12699127197268	667.6474609375	194.1570587158203	2.184769153594987	550.5615234375	-132.4340209960938	-137.402099609375	281.9461059570312	113.9295654296875	-50.58081054687499	542.6853637695312	-89.70838928222659	-227.1493682861328	289.8689270019531	138.771499633789	187.8834533691407	1127.083618164062	-195.3930358886719	225.4215240478516	1173.7060546875	-218.7770080566407	221.836929321289	1156.9423828125	259.5773620605468	411.1850280761718	1020.286315917969	234.4618377685547	432.7518920898438	1036.891723632812	-178.9710388183594	262.8850402832031	1350.217895507812	-39.06387710571294	201.993408203125	1487.918334960938	-47.7538146972657	206.3232269287109	1515.207153320312	78.33528900146477	57.0773124694824	1418.33544921875	172.975601196289	43.39687347412111	1414.16455078125	-115.4961395263673	41.95827102661132	1322.47998046875	30.14691162109367	485.2261962890625	1044.982421875	-98.18991088867189	487.3754577636719	1045.87939453125	176.9305419921875	
3	0.01666666666666667	261.2505493164062	1358.6591796875	104.7331085205078	-182.4028015136719	296.6377563476562	187.3827667236328	-48.51508331298829	1201.3662109375	31.9625873565673	40.5901222229004	538.218017578125	-54.90408706665042	128.3387603759766	913.43994140625	-120.361686706543	-197.9735107421875	1349.696044921875	46.18517303466786	181.354263305664	1126.812622070312	215.1299591064453	386.7998962402344	1012.409912109375	173.7027130126953	41.22476959228515	1457.947265625	35.06307983398429	-189.5885620117188	1115.41455078125	-61.44068908691415	186.986801147461	459.7970886230469	-128.3885498046875	-35.94542694091799	176.2488861083984	198.20458984375	408.1620788574219	1032.651123046875	-121.9457473754883	-346.075439453125	1143.16748046875	-2.163792610168569	-335.5375061035156	1139.148681640625	105.9403228759764	-179.8316497802735	1104.536376953125	151.3561096191405	152.3838195800781	869.1578979492188	-27.50541114807132	-3.692624807357801	618.812744140625	102.0278701782226	-24.25308227539065	671.0048828125	194.7310638427734	9.205360412597672	539.6296997070312	-132.5318298339844	-144.3697052001953	289.8259582519531	113.6577606201172	-43.73146820068358	530.8597412109375	-90.59815216064456	-234.3680572509766	299.797607421875	138.5120697021484	187.5223236083985	1126.909912109375	-195.1494598388672	225.0548706054688	1173.540771484375	-218.6978302001954	221.4426574707031	1156.668701171875	259.4405517578124	411.0404052734374	1020.298156738281	234.3497619628906	432.4893188476562	1036.883056640625	-179.0532531738281	262.4984741210938	1349.851928710938	-38.74971771240239	201.6797027587891	1487.600708007812	-47.43923187255866	205.920166015625	1514.811401367188	78.65530395507805	56.57323074340818	1417.985595703125	172.9828033447265	42.95947265625001	1413.9423828125	-115.4065017700196	41.49720382690429	1322.15234375	30.21901893615715	485.0401000976562	1045.058837890625	-98.32275390625001	487.1990661621094	1045.970458984375	176.8355712890625	
4	0.025	260.6234130859375	1357.787109375	105.3532562255859	-189.5999298095703	307.175537109375	187.7010192871093	-49.00491333007813	1200.98779296875	32.02777099609367	45.0476303100586	527.6129150390625	-54.11656188964847	127.0308837890625	905.7865600585938	-119.0781784057618	-198.4417572021484	1349.32421875	45.80463790893544	180.9548645019531	1126.3310546875	213.8760986328125	386.2979736328125	1012.296325683594	173.8056793212891	40.32066345214843	1457.502563476562	35.26566314697257	-189.8664093017578	1114.954223632812	-62.0268096923829	195.2069396972657	453.0653686523438	-128.7758178710938	-45.50927734375002	183.4310455322266	198.5447235107422	408.1116943359375	1032.355712890625	-122.0010604858398	-346.4423828125	1142.612060546875	-2.82557559013378	-336.1061096191406	1138.91552734375	105.2851333618163	-180.3019256591797	1104.494384765625	150.8419036865234	152.4407958984375	860.9334106445312	-27.82979393005375	-0.07312382012606924	622.5817260742188	102.6619567871093	-19.85748291015627	674.2631225585938	195.5989685058593	16.14149093627931	528.1386108398438	-132.930648803711	-154.5551910400391	300.0709533691406	112.9551544189453	-36.80250167846678	518.4571533203125	-90.69122314453128	-241.3516693115235	310.5187683105469	138.2616424560546	187.1817474365235	1126.773193359375	-194.8374786376953	224.4646301269532	1173.375122070312	-218.7667541503907	220.9157562255859	1157.246826171875	259.5624999999999	410.3452758789062	1021.756774902344	236.0723876953125	432.9977416992188	1036.417114257812	-179.1459197998047	262.1590881347656	1349.4970703125	-38.39440917968755	201.5122833251953	1487.52734375	-48.72348403930671	204.716552734375	1514.3896484375	79.22680664062493	56.21761703491209	1417.568237304688	172.8366088867187	42.50856018066408	1413.715576171875	-115.2694549560548	41.01449966430663	1321.846923828125	30.39909553527824	484.1433715820312	1046.333251953125	-97.3844680786133	487.0627136230469	1045.939331054688	176.8892822265625	
